<?xml version="1.0" encoding="utf-8"?>
<!-- Generator: Adobe Illustrator 23.0.3, SVG Export Plug-In . SVG Version: 6.00 Build 0)  -->
<svg version="1.1" id="Layer_1" xmlns="http://www.w3.org/2000/svg" xmlns:xlink="http://www.w3.org/1999/xlink" x="0px" y="0px"
	 viewBox="0 0 575 511" style="enable-background:new 0 0 575 511;" xml:space="preserve">
<style type="text/css">
	.st0{fill:#FFFFFF;}
</style>
<g>
	<g>
		<path class="st0" d="M-19.5,599c0-205.2,0-410.3,0-615.6c205.1,0,410.1,0,615.5,0c0,205.1,0,410.3,0,615.6
			C390.8,599,185.7,599-19.5,599z M503,236c-1.6,1-2.4,1.2-2.9,1.7c-33.5,33.4-67,66.9-100.3,100.5c-1.5,1.5-1.6,4.8-1.7,7.4
			c-0.4,8,1.1,16.6-1,24.1c-5.9,21.3-28.1,33.5-50.1,28.8c-21.4-4.6-35.8-25.2-32.9-47.7c0.6-5,0.2-8.4-4-11.9
			c-22.7-19.5-45.2-39.2-67.6-59c-3.2-2.8-5.9-3-10.2-2.5c-8.7,1-17.8,1.2-26.4-0.3c-5.4-1-8.8-0.9-13.1,2.6
			c-47.6,37.9-95.4,75.6-143.1,113.5c-4.3,3.4-8.6,7-13.4,10.9c19,17.7,40.2,28.7,65.1,28.8c131.2,0.4,262.5,0.2,393.6,0.1
			c6.5,0,13.3-1,19.5-2.8c29.9-8.2,52.7-35.9,55.1-66c2.7-33.2-14.4-63.6-43.7-76.9c-5.4-2.5-7.7-5.4-8.2-11.1
			C516.7,261.7,511.6,248.6,503,236z M14.7,375.7c3.1-1.9,4.5-2.6,5.6-3.4c50.9-40.3,101.9-80.6,152.7-121.1c2.4-1.9,4-6.3,3.9-9.5
			c-0.4-10,0.9-19.4,6.4-27.9c11.5-17.4,31.9-24.3,51-17.5c18.9,6.9,29.8,24.6,27.7,45.4c-0.4,4.2-1.5,7.9,2.8,11.7
			c23.4,19.9,46.3,40.4,69.5,60.3c2,1.7,5.8,1.9,8.8,1.9c7.8,0,15.7-1.4,23.5-0.5c4.7,0.5,7.5-0.4,10.6-3.6
			c31.7-31.9,63.6-63.7,95.5-95.6c1.6-1.6,2.9-3.3,5-5.8c-33.3-21.1-66.7-20.7-100.7-3.5c-1-2.6-1.6-4-2.1-5.4
			c-19.9-59.4-81.3-102.4-152.5-91c-55.4,9-101.6,54.2-111.2,109.8c-1,5.7-2.7,8.1-8.9,8.6c-59.1,4-101.7,54.3-95.7,113.8
			C7.4,353.4,11.7,364.1,14.7,375.7z"/>
		<path d="M503,236c8.6,12.5,13.6,25.7,15,40.2c0.5,5.9,2.9,8.8,8.2,11.1c29.4,13.4,46.3,43.7,43.7,76.9
			c-2.4,30.1-25.3,57.7-55.1,66c-6.3,1.7-13,2.8-19.5,2.8c-131.2,0.1-262.5,0.3-393.6-0.1c-25-0.1-46.2-11.1-65.1-28.8
			c4.8-4,9.1-7.5,13.4-10.9c47.7-37.8,95.5-75.5,143.1-113.5c4.3-3.4,7.7-3.4,13.1-2.6c8.6,1.5,17.7,1.3,26.4,0.3
			c4.3-0.5,7-0.3,10.2,2.5c22.4,19.8,44.9,39.6,67.6,59c4.2,3.5,4.6,6.9,4,11.9c-2.9,22.5,11.5,43.1,32.9,47.7
			c22,4.7,44.2-7.5,50.1-28.8c2.1-7.6,0.6-16.1,1-24.1c0.1-2.6,0.2-5.9,1.7-7.4c33.3-33.6,66.9-67.1,100.3-100.5
			C500.6,237.2,501.4,237,503,236z"/>
		<path d="M14.7,375.7c-3-11.7-7.2-22.3-8.4-33.2c-6-59.5,36.5-109.8,95.7-113.8c6.2-0.4,7.9-2.9,8.9-8.6
			c9.6-55.6,55.9-100.8,111.2-109.8c71.1-11.6,132.5,31.6,152.5,91c0.4,1.4,1.1,2.8,2.1,5.4c34-17.2,67.4-17.6,100.7,3.5
			c-2.1,2.5-3.4,4.2-5,5.8c-31.8,31.8-63.7,63.6-95.5,95.6c-3.1,3.2-5.9,4.1-10.6,3.6c-7.7-0.9-15.6,0.5-23.5,0.5
			c-3,0-6.7-0.2-8.8-1.9c-23.2-20-46.2-40.4-69.5-60.3c-4.3-3.7-3.2-7.5-2.8-11.7c2-20.8-8.8-38.6-27.7-45.4
			c-19.2-7-39.6,0.1-51,17.5c-5.6,8.5-6.9,17.9-6.4,27.9c0.1,3.2-1.5,7.6-3.9,9.5C122.1,291.7,71.2,332,20.3,372.3
			C19.2,373.2,17.8,373.8,14.7,375.7z"/>
	</g>
</g>
</svg>
